<?xml version="1.0" standalone="no"?>
<!DOCTYPE svg PUBLIC "-//W3C//DTD SVG 20010904//EN"
 "http://www.w3.org/TR/2001/REC-SVG-20010904/DTD/svg10.dtd">
<svg version="1.0" xmlns="http://www.w3.org/2000/svg"
 width="500.000000pt" height="500.000000pt" viewBox="0 0 500.000000 500.000000"
 preserveAspectRatio="xMidYMid meet">
<metadata>
Created by potrace 1.11, written by Peter Selinger 2001-2013
</metadata>
<g transform="translate(0.000000,500.000000) scale(0.100000,-0.100000)"
fill="#000000" stroke="none">
<path d="M0 2500 l0 -2500 2500 0 2500 0 0 2500 0 2500 -2500 0 -2500 0 0
-2500z m1300 356 c206 -436 377 -792 379 -790 2 2 160 358 352 791 l347 788
239 3 238 2 560 -692 c308 -381 584 -721 613 -756 l52 -65 0 711 0 711 -137 3
-138 3 -3 43 -3 42 335 0 336 0 0 -45 0 -45 -130 0 -130 0 -2 -927 -3 -927
-76 -16 -77 -16 -637 788 c-350 433 -639 788 -641 788 -2 0 -4 -330 -4 -734
l0 -734 121 -3 c113 -4 122 -6 140 -28 10 -13 19 -32 19 -42 0 -18 -16 -19
-465 -19 l-465 0 0 45 0 45 130 0 130 0 -1 778 c0 687 -2 774 -15 747 -8 -16
-176 -390 -373 -830 l-359 -800 -37 0 -37 0 -349 734 c-192 404 -351 736 -354
739 -3 3 -5 -303 -5 -680 l0 -686 111 -4 c102 -3 112 -5 130 -27 10 -13 19
-32 19 -42 0 -18 -13 -19 -330 -19 l-330 0 0 45 0 45 130 0 130 0 0 890 0 890
-130 0 -130 0 0 45 0 45 238 0 237 0 375 -794z m2083 -1353 l1117 -6 0 -164 0
-163 -2075 0 -2075 0 0 163 c0 90 3 167 7 170 8 9 1588 9 3026 0z"/>
</g>
</svg>
