<?xml version="1.0" standalone="no"?>
<!DOCTYPE svg PUBLIC "-//W3C//DTD SVG 20010904//EN"
 "http://www.w3.org/TR/2001/REC-SVG-20010904/DTD/svg10.dtd">
<svg version="1.0" xmlns="http://www.w3.org/2000/svg"
 width="500.000000pt" height="500.000000pt" viewBox="0 0 500.000000 500.000000"
 preserveAspectRatio="xMidYMid meet">
<metadata>
Created by potrace 1.11, written by Peter Selinger 2001-2013
</metadata>
<g transform="translate(0.000000,500.000000) scale(0.100000,-0.100000)"
fill="#000000" stroke="none">
<path d="M0 2500 l0 -2500 2500 0 2500 0 0 2500 0 2500 -2500 0 -2500 0 0
-2500z m3270 2485 c0 -4 -47 -84 -300 -510 -425 -716 -482 -807 -496 -794 -21
22 -804 1291 -804 1304 0 3 360 5 800 5 440 0 800 -2 800 -5z m127 -2667 c3
-133 15 -507 18 -548 2 -30 7 -158 10 -285 4 -126 8 -250 10 -275 2 -25 6
-139 10 -255 4 -116 9 -239 11 -275 2 -36 7 -201 10 -367 l7 -303 -968 0 -967
0 6 203 c4 111 9 227 11 257 2 30 7 147 10 260 3 113 8 237 10 275 2 39 7 165
10 280 3 116 8 242 10 280 2 39 7 174 11 300 4 127 8 246 10 265 1 19 3 60 3
90 1 54 1 54 20 35 18 -18 222 -323 381 -570 290 -447 454 -695 460 -695 6 0
280 404 645 953 142 213 262 387 265 387 4 0 7 -6 7 -12z"/>
</g>
</svg>
